<svg xmlns="http://www.w3.org/2000/svg" viewBox="1176 325 32 20">
  <defs>
    <style>
      .cls-1, .cls-2 {
        fill: #fff;
      }

      .cls-1 {
        fill-rule: evenodd;
      }
    </style>
  </defs>
  <g id="if_27_Cloud_183554" transform="translate(1176 320)">
    <g id="_27_Cloud" data-name="27 Cloud">
      <path id="Rectangle_1_copy_2" data-name="Rectangle 1 copy 2" class="cls-1" d="M0,19a6,6,0,0,1,3-5.2A9,9,0,0,1,19.655,9.265a6.509,6.509,0,0,1,7.93,3.946A6,6,0,0,1,26,25H6A6,6,0,0,1,0,19Zm25.973-4a4.5,4.5,0,0,0-7.27-3.025A7,7,0,0,0,5.087,15.1,4,4,0,0,0,6,23H26a4,4,0,0,0,0-8Zm0,0"/>
      <circle id="Ellipse_1" data-name="Ellipse 1" class="cls-2" cx="9" cy="9" r="9" transform="translate(3 6)"/>
      <circle id="Ellipse_2" data-name="Ellipse 2" class="cls-2" cx="7.5" cy="7.5" r="7.5" transform="translate(12 10)"/>
      <circle id="Ellipse_3" data-name="Ellipse 3" class="cls-2" cx="5.5" cy="5.5" r="5.5" transform="translate(20 13)"/>
      <ellipse id="Ellipse_4" data-name="Ellipse 4" class="cls-2" cx="5" cy="4.5" rx="5" ry="4.5" transform="translate(1 15)"/>
    </g>
  </g>
</svg>
