<svg xmlns="http://www.w3.org/2000/svg" viewBox="1494.4 -344.2 161.405 115.1">
  <defs>
    <style>
      .cls-1 {
        fill: #dbdbdb;
      }

      .cls-2 {
        fill: #fff;
      }
    </style>
  </defs>
  <g id="Group_12" data-name="Group 12" transform="translate(1273.5 -650.5)">
    <path id="Path_23" data-name="Path 23" class="cls-1" d="M369.6,324.9a21.829,21.829,0,0,0-42.9-1.5,16.061,16.061,0,0,0-24.4,8.5,33.355,33.355,0,0,1,4.2,10.3,25,25,0,0,1,14-4.4,24.488,24.488,0,0,1,24.3,21A18.511,18.511,0,0,1,350,361h13.9a18.352,18.352,0,0,0,18.4-18.4A17.958,17.958,0,0,0,369.6,324.9Z"/>
    <path id="Path_24" data-name="Path 24" class="cls-2" d="M320.6,337.6a24.247,24.247,0,0,0-14,4.4,34.385,34.385,0,0,0-4.2-10.3,33.556,33.556,0,0,0-61.8,12.7,28.322,28.322,0,0,0,8.6,55.3h90.5a20.882,20.882,0,0,0,10.4-39,23.893,23.893,0,0,0-5.2-2.2A24.577,24.577,0,0,0,320.6,337.6Z"/>
    <path id="Path_25" data-name="Path 25" class="cls-2" d="M320,404.2a1.11,1.11,0,0,0-1.1,1.1v15a1.1,1.1,0,0,0,2.2,0v-15A1.049,1.049,0,0,0,320,404.2Z"/>
    <path id="Path_26" data-name="Path 26" class="cls-2" d="M328.5,404.2a1.11,1.11,0,0,0-1.1,1.1v15a1.1,1.1,0,0,0,2.2,0v-15A1.049,1.049,0,0,0,328.5,404.2Z"/>
    <path id="Path_27" data-name="Path 27" class="cls-2" d="M311.5,404.2a1.11,1.11,0,0,0-1.1,1.1v15a1.1,1.1,0,0,0,2.2,0v-15A1.049,1.049,0,0,0,311.5,404.2Z"/>
    <path id="Path_28" data-name="Path 28" class="cls-2" d="M303,404.2a1.11,1.11,0,0,0-1.1,1.1v15a1.1,1.1,0,0,0,2.2,0v-15A1.049,1.049,0,0,0,303,404.2Z"/>
    <path id="Path_29" data-name="Path 29" class="cls-2" d="M294.5,404.2a1.11,1.11,0,0,0-1.1,1.1v15a1.1,1.1,0,0,0,2.2,0v-15A1.049,1.049,0,0,0,294.5,404.2Z"/>
    <path id="Path_30" data-name="Path 30" class="cls-2" d="M286,404.2a1.11,1.11,0,0,0-1.1,1.1v15a1.1,1.1,0,0,0,2.2,0v-15A1.049,1.049,0,0,0,286,404.2Z"/>
    <path id="Path_31" data-name="Path 31" class="cls-2" d="M277.5,404.2a1.11,1.11,0,0,0-1.1,1.1v15a1.1,1.1,0,0,0,2.2,0v-15A1.049,1.049,0,0,0,277.5,404.2Z"/>
    <path id="Path_32" data-name="Path 32" class="cls-2" d="M269,404.2a1.11,1.11,0,0,0-1.1,1.1v15a1.1,1.1,0,0,0,2.2,0v-15C270,404.6,269.6,404.2,269,404.2Z"/>
    <path id="Path_33" data-name="Path 33" class="cls-2" d="M260.5,404.2a1.11,1.11,0,0,0-1.1,1.1v15a1.1,1.1,0,0,0,2.2,0v-15C261.5,404.6,261.1,404.2,260.5,404.2Z"/>
  </g>
</svg>
