<svg xmlns="http://www.w3.org/2000/svg" viewBox="466 197.8 300.302 223.031">
  <defs>
    <style>
      .cls-1 {
        fill: #dbdbdb;
      }

      .cls-2 {
        fill: #ffc22d;
      }

      .cls-3 {
        fill: #fff;
      }
    </style>
  </defs>
  <g id="sun_cloud" transform="translate(447.5 36.6)">
    <g id="Group_8" data-name="Group 8" transform="translate(18.5 161.2)">
      <path id="Path_9" data-name="Path 9" class="cls-1" d="M196.67,222.128A40.665,40.665,0,0,0,133,194.947a54.891,54.891,0,0,1,12.287,34.628,53.525,53.525,0,0,1-8.378,29.042,45.437,45.437,0,0,1,13.59,26.436,34.461,34.461,0,0,1,9.681,4.1h25.691a34.165,34.165,0,0,0,34.255-34.255A33.594,33.594,0,0,0,196.67,222.128Zm-17.314,9.308H151.8a1.862,1.862,0,0,1,0-3.723h27.553a1.866,1.866,0,0,1,1.862,1.862C181.4,230.691,180.473,231.436,179.356,231.436Z" transform="translate(80.164 -138.537)"/>
      <path id="Path_10" data-name="Path 10" class="cls-2" d="M110.973,192.477a1.866,1.866,0,0,0,1.862-1.862V163.062a1.862,1.862,0,1,0-3.723,0v27.553C108.925,191.732,109.856,192.477,110.973,192.477Z" transform="translate(59.559 -161.2)"/>
      <path id="Path_11" data-name="Path 11" class="cls-2" d="M171.515,209H143.962a1.862,1.862,0,1,0,0,3.723h27.553a1.866,1.866,0,0,0,1.862-1.862A1.753,1.753,0,0,0,171.515,209Z" transform="translate(88.006 -120.011)"/>
      <path id="Path_12" data-name="Path 12" class="cls-2" d="M132.958,197.913a2.025,2.025,0,0,0,2.793,0l19.362-19.362a1.975,1.975,0,0,0-2.793-2.793l-19.362,19.548a1.8,1.8,0,0,0,0,2.606Z" transform="translate(79.647 -149.136)"/>
      <path id="Path_13" data-name="Path 13" class="cls-2" d="M95.12,197.913a1.975,1.975,0,1,0,2.793-2.793L78.551,175.758a1.975,1.975,0,0,0-2.793,2.793Z" transform="translate(30.358 -149.136)"/>
      <path id="Path_14" data-name="Path 14" class="cls-2" d="M122.54,259.994A46.538,46.538,0,0,1,148.6,251.8a45.737,45.737,0,0,1,31.649,12.66A54.943,54.943,0,1,0,82.7,214.755,63.1,63.1,0,0,1,122.54,259.994Z" transform="translate(36.821 -144.569)"/>
      <path id="Path_15" data-name="Path 15" class="cls-3" d="M235.574,250.431a45.738,45.738,0,0,0-31.649-12.66,45.141,45.141,0,0,0-26.064,8.191,62.765,62.765,0,0,0-39.84-45.239A61.007,61.007,0,0,0,116.984,197a62.566,62.566,0,0,0-61.808,53.431A52.727,52.727,0,0,0,71.186,353.383H239.67a39.012,39.012,0,0,0,38.909-38.909h0a39.266,39.266,0,0,0-19.362-33.7,44.483,44.483,0,0,0-9.681-4.1A48.3,48.3,0,0,0,235.574,250.431Z" transform="translate(-18.5 -130.351)"/>
    </g>
  </g>
</svg>
