<svg xmlns="http://www.w3.org/2000/svg" viewBox="120.4 238.8 161.405 113.7">
  <defs>
    <style>
      .cls-1 {
        fill: #dbdbdb;
      }

      .cls-2 {
        fill: #fff;
      }
    </style>
  </defs>
  <g id="Group_14" data-name="Group 14" transform="translate(-269.5 56.5)">
    <path id="Path_51" data-name="Path 51" class="cls-1" d="M538.6,200.9a21.829,21.829,0,0,0-42.9-1.5,16.061,16.061,0,0,0-24.4,8.5,33.355,33.355,0,0,1,4.2,10.3,25,25,0,0,1,14-4.4,24.489,24.489,0,0,1,24.3,21A18.511,18.511,0,0,1,519,237h13.9a18.352,18.352,0,0,0,18.4-18.4A17.959,17.959,0,0,0,538.6,200.9Z"/>
    <path id="Path_52" data-name="Path 52" class="cls-2" d="M489.6,213.6a24.247,24.247,0,0,0-14,4.4,34.385,34.385,0,0,0-4.2-10.3,33.556,33.556,0,0,0-61.8,12.7,28.322,28.322,0,0,0,8.6,55.3h90.5a20.882,20.882,0,0,0,10.4-39,23.893,23.893,0,0,0-5.2-2.2A24.577,24.577,0,0,0,489.6,213.6Z"/>
    <path id="Path_53" data-name="Path 53" class="cls-2" d="M436,280.7V285h4.3Z"/>
    <path id="Path_54" data-name="Path 54" class="cls-2" d="M439,291h4.3l-4.3-4.3Z"/>
    <path id="Path_55" data-name="Path 55" class="cls-2" d="M436,296h4.3l-4.3-4.3Z"/>
    <path id="Path_56" data-name="Path 56" class="cls-2" d="M445,280.7V285h4.3Z"/>
    <path id="Path_57" data-name="Path 57" class="cls-2" d="M448,291h4.3l-4.3-4.3Z"/>
    <path id="Path_58" data-name="Path 58" class="cls-2" d="M445,296h4.3l-4.3-4.3Z"/>
    <path id="Path_59" data-name="Path 59" class="cls-2" d="M454,280.7V285h4.3Z"/>
    <path id="Path_60" data-name="Path 60" class="cls-2" d="M457,291h4.3l-4.3-4.3Z"/>
    <path id="Path_61" data-name="Path 61" class="cls-2" d="M454,296h4.3l-4.3-4.3Z"/>
    <path id="Path_62" data-name="Path 62" class="cls-2" d="M464,280.7V285h4.3Z"/>
    <path id="Path_63" data-name="Path 63" class="cls-2" d="M467,291h4.3l-4.3-4.3Z"/>
    <path id="Path_64" data-name="Path 64" class="cls-2" d="M464,296h4.3l-4.3-4.3Z"/>
    <path id="Path_65" data-name="Path 65" class="cls-2" d="M473,280.7V285h4.3Z"/>
    <path id="Path_66" data-name="Path 66" class="cls-2" d="M476,291h4.3l-4.3-4.3Z"/>
    <path id="Path_67" data-name="Path 67" class="cls-2" d="M473,296h4.3l-4.3-4.3Z"/>
    <path id="Path_68" data-name="Path 68" class="cls-2" d="M482,280.7V285h4.3Z"/>
    <path id="Path_69" data-name="Path 69" class="cls-2" d="M485,291h4.3l-4.3-4.3Z"/>
    <path id="Path_70" data-name="Path 70" class="cls-2" d="M482,296h4.3l-4.3-4.3Z"/>
  </g>
</svg>
