<svg xmlns="http://www.w3.org/2000/svg" viewBox="884.612 515 62.446 42.596">
  <defs>
    <style>
      .cls-1 {
        fill: #ffc22d;
        fill-rule: evenodd;
      }
    </style>
  </defs>
  <g id="if_icon-30-sunrise_315968" transform="translate(877.612 505)">
    <g id="icon-30-sunrise" transform="translate(7 10)">
      <path id="sunrise" class="cls-1" d="M28.666,42.766H20.275q-.073-.809-.073-1.638a18.021,18.021,0,0,1,36.043,0q0,.828-.073,1.638H47.78l-9.557-8.192-9.557,8.192ZM38.223,10a1.618,1.618,0,0,0-1.638,1.623v6.583a1.648,1.648,0,0,0,1.638,1.623,1.618,1.618,0,0,0,1.638-1.623V11.623A1.648,1.648,0,0,0,38.223,10ZM60.3,19.145A1.618,1.618,0,0,0,58,19.134L53.34,23.79A1.648,1.648,0,0,0,53.35,26.1a1.618,1.618,0,0,0,2.306.011l4.655-4.655a1.648,1.648,0,0,0-.011-2.306Zm9.145,22.078a1.618,1.618,0,0,0-1.623-1.638H61.24a1.648,1.648,0,0,0-1.623,1.638,1.618,1.618,0,0,0,1.623,1.638h6.583a1.648,1.648,0,0,0,1.623-1.638ZM7,41.223a1.618,1.618,0,0,0,1.623,1.638h6.583a1.648,1.648,0,0,0,1.623-1.638,1.618,1.618,0,0,0-1.623-1.638H8.623A1.648,1.648,0,0,0,7,41.223Zm1.856,8.1A1.669,1.669,0,0,0,7.19,50.958,1.65,1.65,0,0,0,8.856,52.6H28.762l3.823-3.277L38.318,44.4l5.734,4.915L47.875,52.6H67.781a1.669,1.669,0,0,0,1.665-1.638,1.65,1.65,0,0,0-1.665-1.638H49.787L38.318,39.49,26.85,49.32Zm7.289-30.174a1.618,1.618,0,0,0-.011,2.306l4.655,4.655A1.648,1.648,0,0,0,23.1,26.1a1.618,1.618,0,0,0,.011-2.306l-4.655-4.655a1.648,1.648,0,0,0-2.306.011Z" transform="translate(-7 -10)"/>
    </g>
  </g>
</svg>
